<svg version="1.1" id="Layer_1" xmlns="http://www.w3.org/2000/svg" xmlns:xlink="http://www.w3.org/1999/xlink" x="0px" y="0px"
	 width="100%" viewBox="0 0 512 512" enable-background="new 0 0 512 512" xml:space="preserve">
<path fill="#000000" opacity="1.000000" stroke="none" 
	d="
M330.000000,513.000000 
	C220.026718,513.000000 110.553429,513.000000 1.080140,513.000000 
	C1.053424,512.860107 1.003294,512.720154 1.003291,512.580261 
	C0.999987,342.121857 1.000000,171.663452 1.000000,1.000000 
	C86.244049,1.000000 171.488266,1.000000 256.732483,1.000000 
	C342.045013,1.000000 427.357513,1.000000 512.835022,1.000000 
	C512.835022,171.666534 512.835022,342.333252 512.835022,513.000000 
	C452.136688,513.000000 391.318329,513.000000 330.000000,513.000000 
M241.003296,306.998871 
	C241.038986,292.677368 241.074661,278.355896 241.775925,263.751709 
	C257.786926,258.237610 264.540192,240.761932 259.357513,226.861633 
	C253.263077,210.515778 235.541550,203.820450 220.017609,210.102371 
	C236.191574,185.285538 258.881073,171.190430 288.545593,169.045013 
	C318.230743,166.898087 342.323578,178.555618 362.440155,200.061569 
	C382.935852,182.444656 403.396362,164.857956 424.076141,147.082809 
	C423.369202,145.890503 422.832275,144.459625 421.865570,143.433746 
	C408.679047,129.440063 394.167908,117.085701 377.084381,108.035286 
	C356.807892,97.293259 335.654388,89.029091 312.442566,88.068100 
	C298.269684,87.481331 283.884979,86.679794 269.890869,88.390923 
	C250.222900,90.795845 231.534470,97.334183 213.943146,106.924736 
	C191.316193,119.260643 172.368240,135.583115 157.104233,156.334183 
	C145.242065,172.460541 136.605072,190.124374 131.054901,209.304459 
	C127.491180,221.619873 125.850388,234.207626 124.712418,247.019348 
	C123.542603,260.189514 124.681305,273.008881 127.036461,285.753906 
	C128.983017,296.287872 132.200485,306.586975 133.940369,317.000519 
	C106.844505,316.997070 84.360268,322.752960 77.804482,331.171356 
	C85.421448,332.429474 93.259270,333.371368 100.928619,335.072723 
	C112.698036,337.683716 123.084717,342.598053 129.524124,353.721161 
	C131.303009,356.793945 134.034943,359.434814 136.715302,361.844910 
	C147.571671,371.606659 161.144745,375.134125 175.205338,378.682922 
	C178.276535,381.428772 181.303055,384.226593 184.426804,386.911285 
	C196.389221,397.192352 209.578110,405.540527 224.633667,412.277222 
	C229.800644,414.233582 234.967621,416.189911 240.598999,418.701721 
	C253.521179,421.463074 266.330780,425.572540 279.392456,426.662933 
	C297.964935,428.213379 316.682495,427.277771 335.063171,423.030121 
	C359.182922,417.456177 382.241974,409.038239 402.355408,394.531128 
	C413.809204,386.269928 423.744873,375.872620 434.111481,366.167328 
	C435.758881,364.625092 436.872101,361.659607 436.881226,359.346771 
	C437.044861,317.880493 437.000122,276.413391 437.000092,234.946457 
	C437.000092,233.368942 437.000092,231.791443 437.000092,230.269165 
	C386.956909,230.269165 337.724426,230.269165 288.004852,230.269165 
	C288.004852,243.644287 288.004852,256.755981 287.155212,269.962555 
	C276.427521,270.703217 267.765900,275.902405 259.845123,282.663757 
	C251.656494,289.653748 246.044800,298.577271 241.003296,306.998871 
z"/>
<path fill="#60BC56" opacity="1.000000" stroke="none" 
	d="
M134.854813,316.990143 
	C132.200485,306.586975 128.983017,296.287872 127.036461,285.753906 
	C124.681305,273.008881 123.542603,260.189514 124.712418,247.019348 
	C125.850388,234.207626 127.491180,221.619873 131.054901,209.304459 
	C136.605072,190.124374 145.242065,172.460541 157.104233,156.334183 
	C172.368240,135.583115 191.316193,119.260643 213.943146,106.924736 
	C231.534470,97.334183 250.222900,90.795845 269.890869,88.390923 
	C283.884979,86.679794 298.269684,87.481331 312.442566,88.068100 
	C335.654388,89.029091 356.807892,97.293259 377.084381,108.035286 
	C394.167908,117.085701 408.679047,129.440063 421.865570,143.433746 
	C422.832275,144.459625 423.369202,145.890503 424.076141,147.082809 
	C403.396362,164.857956 382.935852,182.444656 362.440155,200.061569 
	C342.323578,178.555618 318.230743,166.898087 288.545593,169.045013 
	C258.881073,171.190430 236.191574,185.285538 219.694855,210.627716 
	C205.506866,220.747696 201.731598,233.644104 206.831085,249.450928 
	C206.877487,249.594727 206.801437,249.778061 206.474762,250.236328 
	C205.301453,261.948273 207.419830,273.010223 209.842072,283.882202 
	C191.519135,268.394470 171.656372,265.609222 150.019394,275.000214 
	C148.985336,275.449005 148.116257,276.277924 146.124298,277.650726 
	C149.667374,277.824310 151.807831,277.938904 153.949219,278.032471 
	C166.005280,278.559509 175.349731,283.517975 181.089005,294.493896 
	C183.092133,298.324707 185.357559,302.018829 187.344177,305.857697 
	C195.123978,320.891144 207.169586,330.142761 223.968018,333.541260 
	C223.998856,348.019989 223.993713,362.036163 223.715393,375.846008 
	C206.781647,344.243866 180.630615,325.942505 145.926727,319.408447 
	C142.215881,318.709747 138.544495,317.801300 134.854813,316.990143 
z"/>
<path fill="#60BC56" opacity="1.000000" stroke="none" 
	d="
M288.004852,269.867676 
	C288.004852,256.755981 288.004852,243.644287 288.004852,230.269165 
	C337.724426,230.269165 386.956909,230.269165 437.000092,230.269165 
	C437.000092,231.791443 437.000092,233.368942 437.000092,234.946457 
	C437.000122,276.413391 437.044861,317.880493 436.881226,359.346771 
	C436.872101,361.659607 435.758881,364.625092 434.111481,366.167328 
	C423.744873,375.872620 413.809204,386.269928 402.355408,394.531128 
	C382.241974,409.038239 359.182922,417.456177 335.063171,423.030121 
	C316.682495,427.277771 297.964935,428.213379 279.392456,426.662933 
	C266.330780,425.572540 253.521179,421.463074 240.610016,418.070190 
	C240.790329,409.027802 240.959641,400.616913 241.431595,392.041473 
	C247.794815,389.237366 253.642273,385.787079 259.960144,384.126373 
	C273.297394,380.620544 286.915466,378.199463 300.353912,375.057892 
	C315.669128,371.477570 328.368896,363.759827 337.157654,350.395599 
	C341.487030,343.812408 347.681152,339.757355 354.899597,337.307922 
	C360.232117,335.498474 365.770599,334.231079 371.287598,333.050415 
	C375.843567,332.075470 380.502502,331.581482 385.115814,330.874390 
	C385.222168,330.258698 385.328522,329.643005 385.434906,329.027313 
	C379.202606,326.497650 373.020660,323.832703 366.719391,321.488434 
	C362.865845,320.054810 358.829102,319.113678 354.924744,317.512604 
	C354.900330,315.488190 354.825745,313.902527 354.729614,311.858704 
	C332.364136,311.858704 310.377991,311.858704 287.852722,311.858704 
	C287.852722,306.270905 287.852722,301.160339 287.905701,295.677856 
	C291.077301,286.025360 297.914490,281.006744 307.150848,279.126038 
	C311.892670,278.160522 316.781067,277.914551 322.665894,277.217529 
	C311.184021,270.588104 299.823669,269.131775 288.004852,269.867676 
z"/>
<path fill="#008A45" opacity="1.000000" stroke="none" 
	d="
M134.397583,316.995331 
	C138.544495,317.801300 142.215881,318.709747 145.926727,319.408447 
	C180.630615,325.942505 206.781647,344.243866 223.726562,376.307800 
	C223.962158,382.045105 223.913361,387.114258 223.561829,392.022400 
	C208.609177,382.157928 191.439255,381.286102 174.937302,378.073334 
	C161.144745,375.134125 147.571671,371.606659 136.715302,361.844910 
	C134.034943,359.434814 131.303009,356.793945 129.524124,353.721161 
	C123.084717,342.598053 112.698036,337.683716 100.928619,335.072723 
	C93.259270,333.371368 85.421448,332.429474 77.804482,331.171356 
	C84.360268,322.752960 106.844505,316.997070 134.397583,316.995331 
z"/>
<path fill="#016837" opacity="1.000000" stroke="none" 
	d="
M223.864563,392.183411 
	C223.913361,387.114258 223.962158,382.045105 223.999756,376.514160 
	C223.993713,362.036163 223.998856,348.019989 223.984711,333.067719 
	C223.972672,321.730682 223.979919,311.329712 223.992157,300.465027 
	C223.965088,288.011810 223.933060,276.022308 224.150894,263.752563 
	C229.970627,263.659698 235.540497,263.847046 241.110352,264.034393 
	C241.074661,278.355896 241.038986,292.677368 241.005692,307.936768 
	C241.114929,317.096161 241.221786,325.317719 241.215912,333.949158 
	C241.072479,348.250580 241.041763,362.142059 241.000961,376.498535 
	C241.036896,382.044403 241.082932,387.125214 241.128967,392.206055 
	C240.959641,400.616913 240.790329,409.027802 240.377808,417.792450 
	C234.967621,416.189911 229.800644,414.233582 224.344269,411.620911 
	C223.991425,404.704193 223.927994,398.443787 223.864563,392.183411 
z"/>
<path fill="#FFD938" opacity="1.000000" stroke="none" 
	d="
M241.443146,263.893066 
	C235.540497,263.847046 229.970627,263.659698 223.816757,263.615723 
	C215.927719,261.322601 210.869995,256.210419 206.782562,249.942932 
	C206.801437,249.778061 206.877487,249.594727 206.831085,249.450928 
	C201.731598,233.644104 205.506866,220.747696 219.658447,210.973236 
	C235.541550,203.820450 253.263077,210.515778 259.357513,226.861633 
	C264.540192,240.761932 257.786926,258.237610 241.443146,263.893066 
z"/>
<path fill="#008A45" opacity="1.000000" stroke="none" 
	d="
M241.328644,333.539246 
	C241.221786,325.317719 241.114929,317.096161 241.010498,308.400818 
	C246.044800,298.577271 251.656494,289.653748 259.845123,282.663757 
	C267.765900,275.902405 276.427521,270.703217 287.580017,269.915100 
	C299.823669,269.131775 311.184021,270.588104 322.665894,277.217529 
	C316.781067,277.914551 311.892670,278.160522 307.150848,279.126038 
	C297.914490,281.006744 291.077301,286.025360 287.605286,295.830872 
	C284.128021,301.769073 281.229187,307.328308 277.832336,312.564514 
	C271.188507,322.806000 261.476013,329.033142 249.715576,332.804443 
	C246.687622,333.024353 244.008133,333.281799 241.328644,333.539246 
z"/>
<path fill="#5FBC56" opacity="1.000000" stroke="none" 
	d="
M223.561829,392.022400 
	C223.927994,398.443787 223.991425,404.704193 224.041428,411.423706 
	C209.578110,405.540527 196.389221,397.192352 184.426804,386.911285 
	C181.303055,384.226593 178.276535,381.428772 175.071320,378.378113 
	C191.439255,381.286102 208.609177,382.157928 223.561829,392.022400 
z"/>
<path fill="#018A45" opacity="1.000000" stroke="none" 
	d="
M223.987167,300.928741 
	C223.979919,311.329712 223.972672,321.730682 223.948730,332.605194 
	C207.169586,330.142761 195.123978,320.891144 187.344177,305.857697 
	C185.357559,302.018829 183.092133,298.324707 181.089005,294.493896 
	C175.349731,283.517975 166.005280,278.559509 153.949219,278.032471 
	C151.807831,277.938904 149.667374,277.824310 146.124298,277.650726 
	C148.116257,276.277924 148.985336,275.449005 150.019394,275.000214 
	C171.656372,265.609222 191.519135,268.394470 210.140259,284.017487 
	C215.171448,289.821228 219.579300,295.375000 223.987167,300.928741 
z"/>
<path fill="#000000" opacity="1.000000" stroke="none" 
	d="
M223.992157,300.465027 
	C219.579300,295.375000 215.171448,289.821228 210.465393,284.132202 
	C207.419830,273.010223 205.301453,261.948273 206.474762,250.236328 
	C210.869995,256.210419 215.927719,261.322601 223.566879,263.895935 
	C223.933060,276.022308 223.965088,288.011810 223.992157,300.465027 
z"/>
<path fill="#018A45" opacity="1.000000" stroke="none" 
	d="
M241.431595,392.041473 
	C241.082932,387.125214 241.036896,382.044403 241.271667,376.290253 
	C246.171341,368.732086 250.453690,361.586700 255.517426,355.046295 
	C259.441284,349.978210 264.342041,345.666473 268.998108,340.723877 
	C290.842865,324.404541 315.195099,316.732697 342.074768,317.038879 
	C346.344299,317.087463 350.608154,317.634674 354.874634,317.951355 
	C358.829102,319.113678 362.865845,320.054810 366.719391,321.488434 
	C373.020660,323.832703 379.202606,326.497650 385.434906,329.027313 
	C385.328522,329.643005 385.222168,330.258698 385.115814,330.874390 
	C380.502502,331.581482 375.843567,332.075470 371.287598,333.050415 
	C365.770599,334.231079 360.232117,335.498474 354.899597,337.307922 
	C347.681152,339.757355 341.487030,343.812408 337.157654,350.395599 
	C328.368896,363.759827 315.669128,371.477570 300.353912,375.057892 
	C286.915466,378.199463 273.297394,380.620544 259.960144,384.126373 
	C253.642273,385.787079 247.794815,389.237366 241.431595,392.041473 
z"/>
<path fill="#000000" opacity="1.000000" stroke="none" 
	d="
M354.924744,317.512604 
	C350.608154,317.634674 346.344299,317.087463 342.074768,317.038879 
	C315.195099,316.732697 290.842865,324.404541 268.635529,340.701782 
	C262.076965,338.263519 256.070496,335.552765 250.064056,332.841980 
	C261.476013,329.033142 271.188507,322.806000 277.832336,312.564514 
	C281.229187,307.328308 284.128021,301.769073 287.552307,296.202820 
	C287.852722,301.160339 287.852722,306.270905 287.852722,311.858704 
	C310.377991,311.858704 332.364136,311.858704 354.729614,311.858704 
	C354.825745,313.902527 354.900330,315.488190 354.924744,317.512604 
z"/>
<path fill="#5FBB56" opacity="1.000000" stroke="none" 
	d="
M249.715576,332.804443 
	C256.070496,335.552765 262.076965,338.263519 268.445984,340.996429 
	C264.342041,345.666473 259.441284,349.978210 255.517426,355.046295 
	C250.453690,361.586700 246.171341,368.732086 241.281769,375.825256 
	C241.041763,362.142059 241.072479,348.250580 241.215912,333.949158 
	C244.008133,333.281799 246.687622,333.024353 249.715576,332.804443 
z"/>
</svg>