<?xml version="1.0" standalone="no"?>
<!DOCTYPE svg PUBLIC "-//W3C//DTD SVG 20010904//EN"
 "http://www.w3.org/TR/2001/REC-SVG-20010904/DTD/svg10.dtd">
<svg version="1.0" xmlns="http://www.w3.org/2000/svg"
 width="512.000000pt" height="512.000000pt" viewBox="0 0 512.000000 512.000000"
 preserveAspectRatio="xMidYMid meet">

<g transform="translate(0.000000,512.000000) scale(0.100000,-0.100000)"
fill="#000000" stroke="none">
<path d="M2230 2291 l0 -194 -39 61 c-83 127 -209 225 -335 258 -83 22 -203
18 -293 -11 -92 -29 -115 -42 -93 -49 8 -2 45 -7 83 -10 127 -10 195 -62 276
-211 112 -204 187 -274 344 -320 l57 -16 0 -217 0 -216 -49 79 c-149 241 -361
395 -649 473 -87 23 -114 26 -272 25 -201 0 -279 -15 -410 -80 l-75 -37 90
-13 c206 -30 309 -73 382 -161 181 -215 241 -244 683 -337 117 -24 184 -44
230 -67 l65 -33 3 -101 3 -100 72 -28 c40 -16 78 -31 85 -33 9 -4 12 25 12
126 l0 130 43 25 c64 38 104 50 327 96 367 76 449 117 596 302 80 99 174 143
376 174 125 19 125 22 18 71 -185 84 -464 95 -697 27 -266 -77 -474 -232 -614
-459 l-49 -80 2 214 3 214 55 13 c30 8 87 30 127 49 89 44 149 108 223 239
112 198 167 242 314 253 42 3 79 9 81 13 11 17 -141 62 -225 67 -105 7 -179
-8 -268 -52 -115 -59 -204 -150 -278 -289 l-34 -61 0 231 0 230 -85 0 -85 0 0
-195z"/>
</g>
</svg>
